<svg width="441" height="204" viewBox="0 0 441 204" fill="none" xmlns="http://www.w3.org/2000/svg">
<path d="M9.935 105.65C9.935 95.968 12.097 87.32 16.421 79.706C20.839 71.998 26.808 66.029 34.328 61.799C41.942 57.475 50.449 55.313 59.849 55.313C70.847 55.313 80.482 58.133 88.754 63.773C97.026 69.413 102.807 77.215 106.097 87.179H83.396C81.14 82.479 77.944 78.954 73.808 76.604C69.766 74.254 65.066 73.079 59.708 73.079C53.974 73.079 48.851 74.442 44.339 77.168C39.921 79.8 36.443 83.56 33.905 88.448C31.461 93.336 30.239 99.07 30.239 105.65C30.239 112.136 31.461 117.87 33.905 122.852C36.443 127.74 39.921 131.547 44.339 134.273C48.851 136.905 53.974 138.221 59.708 138.221C65.066 138.221 69.766 137.046 73.808 134.696C77.944 132.252 81.14 128.68 83.396 123.98H106.097C102.807 134.038 97.026 141.887 88.754 147.527C80.576 153.073 70.941 155.846 59.849 155.846C50.449 155.846 41.942 153.731 34.328 149.501C26.808 145.177 20.839 139.208 16.421 131.594C12.097 123.98 9.935 115.332 9.935 105.65ZM284.179 56.582C294.519 56.582 303.59 58.603 311.392 62.645C319.288 66.687 325.351 72.468 329.581 79.988C333.905 87.414 336.067 96.062 336.067 105.932C336.067 115.802 333.905 124.45 329.581 131.876C325.351 139.208 319.288 144.895 311.392 148.937C303.59 152.979 294.519 155 284.179 155H249.775V56.582H284.179ZM283.474 138.221C293.814 138.221 301.804 135.401 307.444 129.761C313.084 124.121 315.904 116.178 315.904 105.932C315.904 95.686 313.084 87.696 307.444 81.962C301.804 76.134 293.814 73.22 283.474 73.22H269.515V138.221H283.474ZM370.583 88.307C373.121 84.547 376.599 81.492 381.017 79.142C385.529 76.792 390.652 75.617 396.386 75.617C403.06 75.617 409.076 77.262 414.434 80.552C419.886 83.842 424.163 88.542 427.265 94.652C430.461 100.668 432.059 107.671 432.059 115.661C432.059 123.651 430.461 130.748 427.265 136.952C424.163 143.062 419.886 147.809 414.434 151.193C409.076 154.577 403.06 156.269 396.386 156.269C390.558 156.269 385.435 155.141 381.017 152.885C376.693 150.535 373.215 147.527 370.583 143.861V155H350.843V50.66H370.583V88.307ZM411.896 115.661C411.896 110.961 410.909 106.919 408.935 103.535C407.055 100.057 404.517 97.425 401.321 95.639C398.219 93.853 394.835 92.96 391.169 92.96C387.597 92.96 384.213 93.9 381.017 95.78C377.915 97.566 375.377 100.198 373.403 103.676C371.523 107.154 370.583 111.243 370.583 115.943C370.583 120.643 371.523 124.732 373.403 128.21C375.377 131.688 377.915 134.367 381.017 136.247C384.213 138.033 387.597 138.926 391.169 138.926C394.835 138.926 398.219 137.986 401.321 136.106C404.517 134.226 407.055 131.547 408.935 128.069C410.909 124.591 411.896 120.455 411.896 115.661Z" fill="white"/>
<path d="M230.259 56.582V155H210.519V90.986L184.152 155H169.206L142.698 90.986V155H122.958V56.582H145.377L176.679 129.761L207.981 56.582H230.259Z" fill="#3ABAB4"/>
<rect y="199" width="441" height="5" fill="#3ABAB4"/>
</svg>
